<svg id="Logo_filesender" data-name="Logo filesender" xmlns="http://www.w3.org/2000/svg" viewBox="0 0 167.16 50.1"><defs><style>.cls-1{fill:#231f20}.cls-2{fill:#fff}</style></defs><path class="cls-1" d="M74.32 29.36A5.62 5.62 0 0179.93 35v3.58a5.61 5.61 0 01-5.61 5.61h-8.38a5.61 5.61 0 01-5.61-5.61v-2.23a7 7 0 00-7-7H13.49a7 7 0 01-7-7v-8.61a7 7 0 017-7h39.85a7 7 0 017 7v8.64a7 7 0 007 7z"/><path class="cls-2" d="M18.54 20.13c0-.52-.66-.74-1.51-1l-1.69-.51A2.87 2.87 0 0113 15.9c0-1.82 1.63-3.05 3.83-3.05 1.71 0 3.72.59 3.72 1.68 0 .67-.33 1.08-.95 1.08a2.9 2.9 0 01-.93-.21 5 5 0 00-1.8-.4c-.64 0-1.45.26-1.45.77s.36.67 1.16.91l1.89.58a3 3 0 012.45 2.92c0 1.88-1.76 3.09-4 3.09-1.9 0-4.11-.59-4.11-1.68a1 1 0 011.06-1.09 3 3 0 011 .22 5.87 5.87 0 002 .37c.8.02 1.67-.33 1.67-.96zM30.06 14.06a1.16 1.16 0 112.32 0v4.43a4.6 4.6 0 11-9.2 0v-4.43a1 1 0 011.15-1.16 1 1 0 011.17 1.16v4.43a2.29 2.29 0 104.56 0zM39.56 20h-2.13v2.06a1.16 1.16 0 11-2.32 0v-7.91A1 1 0 0136.27 13h3.33a3.52 3.52 0 013.78 3.58 3 3 0 01-1.59 2.79l1.07 2.16a1.28 1.28 0 01.15.61c0 .68-.76 1.11-1.34 1.11a1.05 1.05 0 01-1-.74zm-2.13-4.81v2.7h2c.88 0 1.58-.4 1.58-1.34s-.7-1.36-1.58-1.36zM48.21 19.58v2.5a1.16 1.16 0 11-2.31 0v-7.93A1 1 0 0147.06 13h5.56a1 1 0 011.1 1.11 1 1 0 01-1.1 1.11h-4.41v2.15H51a1 1 0 011.1 1.12 1 1 0 01-1.1 1.1z"/><path class="cls-1" d="M69.39 19.53v2.55a1.18 1.18 0 11-2.36 0V14a1 1 0 011.18-1.17h5.67A1 1 0 0175 13.94a1 1 0 01-1.13 1.14h-4.48v2.19h2.81a1 1 0 011.12 1.14 1 1 0 01-1.12 1.12zM76.52 13.9a1.19 1.19 0 012.37 0v8.18a1.19 1.19 0 01-2.37 0zM81.9 13.9a1.18 1.18 0 012.36 0v7h4.41A1 1 0 0189.8 22a1 1 0 01-1.13 1.13h-5.59A1.05 1.05 0 0181.9 22zM97.89 12.82A1 1 0 0199 13.94a1 1 0 01-1.12 1.14h-4.61v1.75h2.87A1 1 0 0197.27 18a1 1 0 01-1.13 1.13h-2.87v1.81h4.62A1 1 0 0199 22a1 1 0 01-1.12 1.13h-5.81A1 1 0 0190.9 22v-8a1 1 0 011.17-1.17zM106 20.09c0-.53-.67-.75-1.53-1l-1.73-.52a2.9 2.9 0 01-2.34-2.78c0-1.85 1.66-3.11 3.9-3.11 1.74 0 3.8.6 3.8 1.71 0 .68-.34 1.11-1 1.11a3 3 0 01-1-.22 5.05 5.05 0 00-1.88-.38c-.65 0-1.48.26-1.48.78s.37.68 1.18.93l1.93.59a3 3 0 012.5 3c0 1.92-1.8 3.15-4.1 3.15-1.93 0-4.19-.6-4.19-1.71a1 1 0 011.08-1.11 3.29 3.29 0 011 .22 5.86 5.86 0 002.06.38c.95-.04 1.8-.39 1.8-1.04zM117.65 12.82a1 1 0 011.13 1.12 1 1 0 01-1.13 1.14H113v1.75h2.88A1 1 0 01117 18a1 1 0 01-1.13 1.13H113v1.81h4.62a1 1 0 011.16 1.06 1 1 0 01-1.13 1.13h-5.81a1.05 1.05 0 01-1.18-1.13v-8a1 1 0 011.18-1.17zM128 13.9a1.19 1.19 0 012.37 0v8.18a1.06 1.06 0 01-1.19 1.18 1.38 1.38 0 01-1.08-.54l-4.72-5.78v5.14a1.19 1.19 0 01-2.37 0V13.9a1.05 1.05 0 011.18-1.18 1.42 1.42 0 011.16.63l4.65 5.71zM134.19 23.15A1.05 1.05 0 01133 22v-8a1 1 0 011.18-1.17H137c3.35 0 5.59 2.26 5.59 5.16s-2.24 5.17-5.59 5.17zm2.67-2.26a2.92 2.92 0 100-5.81h-1.48v5.81zM151.22 12.82a1 1 0 011.13 1.12 1 1 0 01-1.13 1.14h-4.62v1.75h2.88a1 1 0 011.13 1.17 1 1 0 01-1.13 1.13h-2.88v1.81h4.62a1 1 0 011.13 1.06 1 1 0 01-1.13 1.13h-5.81a1.05 1.05 0 01-1.18-1.13v-8a1 1 0 011.18-1.17zM158.6 20h-2.17v2.1a1.19 1.19 0 01-2.37 0V14a1 1 0 011.18-1.17h3.4a3.58 3.58 0 013.85 3.64 3 3 0 01-1.62 2.85L162 21.5a1.38 1.38 0 01.15.63c0 .69-.78 1.13-1.37 1.13a1.05 1.05 0 01-1-.76zm-2.17-4.9v2.75h2c.91 0 1.62-.41 1.62-1.37s-.71-1.38-1.62-1.38z"/></svg>