<svg width="14" height="14" xmlns="http://www.w3.org/2000/svg"><path d="M6.317 13.203A6.61 6.61 0 01.04 7.21c-.03-.303-.03-.901 0-1.203A6.6 6.6 0 015.588.09 5.842 5.842 0 016.613.014c.41 0 .66.019 1.026.076a6.6 6.6 0 015.546 5.917c.03.302.03.9 0 1.203a6.581 6.581 0 01-1.858 4.013 6.59 6.59 0 01-4.101 1.955c-.206.02-.726.034-.91.025zm.954-.501a6.1 6.1 0 002.128-.626 6.134 6.134 0 003.294-4.468 5.03 5.03 0 00.077-1.013c0-.45-.014-.636-.077-1.012A6.146 6.146 0 008.009.612 5.518 5.518 0 006.64.465c-.45 0-.636.014-1.012.077A6.146 6.146 0 00.656 5.225a5.518 5.518 0 00-.147 1.37c0 .45.014.637.077 1.013a6.134 6.134 0 003.293 4.468c.768.384 1.484.578 2.406.65.148.011.809-.005.986-.024zm-.89-4.824v-2.03h.465v4.061H6.38V7.88zm0-4.339v-.232h.465v.464H6.38V3.54z" fill="#000"/></svg>