<svg xmlns="http://www.w3.org/2000/svg" viewBox="0 0 191.155 139.866">
  <defs>
    <clipPath id="a" clipPathUnits="userSpaceOnUse">
      <path d="M0 595.276h841.89V0H0Z"/>
    </clipPath>
    <clipPath id="b" clipPathUnits="userSpaceOnUse">
      <path d="M0 595.276h841.89V0H0Z"/>
    </clipPath>
    <clipPath id="c" clipPathUnits="userSpaceOnUse">
      <path d="M0 595.276h841.89V0H0Z"/>
    </clipPath>
    <clipPath id="d" clipPathUnits="userSpaceOnUse">
      <path d="M0 595.276h841.89V0H0Z"/>
    </clipPath>
    <clipPath id="e" clipPathUnits="userSpaceOnUse">
      <path d="M0 595.276h841.89V0H0Z"/>
    </clipPath>
    <clipPath id="f" clipPathUnits="userSpaceOnUse">
      <path d="M0 595.276h841.89V0H0Z"/>
    </clipPath>
  </defs>
  <g clip-path="url(#a)" transform="matrix(1.33333 0 0 -1.33333 -2847.528 501.687)">
    <path fill="#ffcc08" d="M433.68 299.133a5.907 5.907 0 1 1-11.815 0 5.907 5.907 0 0 1 11.815 0"/>
    <path fill="#ffcc08" d="M470.394 304.333a5.907 5.907 0 1 0 0 11.815 5.907 5.907 0 0 0 0-11.815m91.107 50.25H459.949a3.73 3.73 0 0 1-3.674-3.088l-6.231-35.702h3.374a5.554 5.554 0 1 0 0-11.106h-9.838a5.554 5.554 0 0 1 0-11.107h16.756a5.554 5.554 0 0 0 0-11.107h-30.783a5.553 5.553 0 1 1 0-11.107h119.052a3.73 3.73 0 0 1 3.678 3.104l12.895 75.758a3.73 3.73 0 0 1-3.677 4.355"/>
    <path fill="#ffcc08" d="M453.257 361.261h102.59v3.831a3.713 3.713 0 0 1-3.713 3.713h-54.182c-2.079 0-3.684 1.705-3.713 3.783a3.73 3.73 0 0 1-3.73 3.677h-45.753a3.713 3.713 0 0 1-3.713-3.713l.511-56.731 8.045 42.366a3.714 3.714 0 0 0 3.658 3.074"/>
    <path fill="#343434" d="M250.366 338.758v-19.703h28.283v-13.561h-28.283v-34.539h-15.878v82.292h46.246v-14.489Zm40.342-7.534h15.533v-60.269h-15.533zm0 22.023h15.533V339.57h-15.533zm27.357 0h15.533v-82.292h-15.533zm38.948-46.823h31.524c-.926 8.575-8.112 12.864-15.413 12.864-7.186 0-14.142-4.173-16.111-12.864m45.317-11.359h-45.085c2.202-8.231 9.387-12.518 18.429-12.518 5.91 0 11.127 1.623 15.53 5.446l7.069-7.531c-4.984-6.259-13.674-10.665-24.339-10.665-16.572 0-31.408 11.242-31.408 31.294 0 20.282 15.065 31.294 30.482 31.294 15.3 0 32.683-10.78 29.322-37.32M231.592 190.86l12.864 5.913c2.317-6.375 7.534-12.056 15.878-12.056 6.491 0 12.056 3.364 12.056 10.549 0 6.027-3.596 8.693-11.94 12.053l-5.216 1.969c-11.24 4.523-20.514 10.782-20.514 23.3 0 13.79 11.475 22.366 25.382 22.366 14.141 0 22.718-8.69 26.427-17.382l-11.821-6.608c-3.477 6.608-7.999 9.852-14.026 9.852-5.91 0-10.316-2.899-10.316-8.345 0-4.289 2.434-7.65 11.475-11.126l5.565-2.205c14.371-5.794 21.557-12.285 21.557-23.99 0-16.692-14.604-24.804-28.397-24.804-14.371 0-26.078 8.461-28.974 20.514m77.78 16.11h31.524c-.926 8.577-8.112 12.867-15.413 12.867-7.186 0-14.142-4.174-16.111-12.867m45.317-11.359h-45.085c2.202-8.228 9.387-12.515 18.429-12.515 5.91 0 11.127 1.62 15.53 5.446l7.069-7.534c-4.984-6.259-13.674-10.662-24.339-10.662-16.572 0-31.408 11.242-31.408 31.294 0 20.282 15.065 31.292 30.482 31.292 15.3 0 32.683-10.778 29.322-37.321m66.076 11.359v-35.466h-15.53v32.916c0 8.809-4.751 14.606-12.866 14.606-7.996 0-12.864-5.797-12.864-14.606v-32.916h-15.533v60.27h15.533v-8.229c3.36 5.333 9.387 9.387 18.429 9.387 12.401 0 22.831-7.65 22.831-25.962m57.847-5.329c0 11.356-8.112 17.386-16.805 17.386s-16.808-6.143-16.808-17.386c0-11.243 8.115-17.386 16.808-17.386s16.805 6.027 16.805 17.386m15.184 52.154v-82.29h-15.533v8.112h-.345c-1.508-3.361-8.464-9.271-19.242-9.271-14.025 0-28.974 10.43-28.974 31.295 0 20.862 14.949 31.292 28.974 31.292 10.778 0 17.734-5.91 19.242-9.271h.229v30.133zm23.421-46.825h31.524c-.926 8.577-8.112 12.867-15.413 12.867-7.186 0-14.142-4.174-16.111-12.867m45.317-11.359h-45.085c2.202-8.228 9.387-12.515 18.429-12.515 5.91 0 11.127 1.62 15.53 5.446l7.069-7.534c-4.981-6.259-13.674-10.662-24.339-10.662-16.572 0-31.408 11.242-31.408 31.294 0 20.282 15.065 31.292 30.482 31.292 15.3 0 32.683-10.778 29.322-37.321m47.764 36.861v-14.836c-1.391.23-2.55.346-3.941.346-11.705 0-19.007-8.112-19.007-20.165v-26.311h-15.532v60.269h15.532v-15.646c2.086 9.271 7.996 16.805 18.891 16.805 1.391 0 2.666-.116 4.057-.462"/>
  </g>
  <g clip-path="url(#b)" transform="matrix(1.33333 0 0 -1.33333 -1705.008 501.687)">
    <path fill="#ffcc08" d="M433.68 299.133a5.907 5.907 0 1 1-11.815 0 5.907 5.907 0 0 1 11.815 0"/>
    <path fill="#ffcc08" d="M470.394 304.333a5.907 5.907 0 1 0 0 11.815 5.907 5.907 0 0 0 0-11.815m91.107 50.25H459.949a3.73 3.73 0 0 1-3.674-3.088l-6.231-35.702h3.374a5.554 5.554 0 1 0 0-11.106h-9.838a5.554 5.554 0 0 1 0-11.107h16.756a5.554 5.554 0 0 0 0-11.107h-30.783a5.553 5.553 0 1 1 0-11.107h119.052a3.73 3.73 0 0 1 3.678 3.104l12.895 75.758a3.73 3.73 0 0 1-3.677 4.355"/>
    <path fill="#ffcc08" d="M453.257 361.261h102.59v3.831a3.713 3.713 0 0 1-3.713 3.713h-54.182c-2.079 0-3.684 1.705-3.713 3.783a3.73 3.73 0 0 1-3.73 3.677h-45.753a3.713 3.713 0 0 1-3.713-3.713l.511-56.731 8.045 42.366a3.714 3.714 0 0 0 3.658 3.074"/>
    <path fill="#fff" d="M250.366 338.758v-19.703h28.283v-13.561h-28.283v-34.539h-15.878v82.292h46.246v-14.489Zm40.342-7.534h15.533v-60.269h-15.533zm0 22.023h15.533V339.57h-15.533zm27.357 0h15.533v-82.292h-15.533zm38.948-46.823h31.524c-.926 8.575-8.112 12.864-15.413 12.864-7.186 0-14.142-4.173-16.111-12.864m45.317-11.359h-45.085c2.202-8.231 9.387-12.518 18.429-12.518 5.91 0 11.127 1.623 15.53 5.446l7.069-7.531c-4.984-6.259-13.674-10.665-24.339-10.665-16.572 0-31.408 11.242-31.408 31.294 0 20.282 15.065 31.294 30.482 31.294 15.3 0 32.683-10.78 29.322-37.32M231.592 190.86l12.864 5.913c2.317-6.375 7.534-12.056 15.878-12.056 6.491 0 12.056 3.364 12.056 10.549 0 6.027-3.596 8.693-11.94 12.053l-5.216 1.969c-11.24 4.523-20.514 10.782-20.514 23.3 0 13.79 11.475 22.366 25.382 22.366 14.141 0 22.718-8.69 26.427-17.382l-11.821-6.608c-3.477 6.608-7.999 9.852-14.026 9.852-5.91 0-10.316-2.899-10.316-8.345 0-4.289 2.434-7.65 11.475-11.126l5.565-2.205c14.371-5.794 21.557-12.285 21.557-23.99 0-16.692-14.604-24.804-28.397-24.804-14.371 0-26.078 8.461-28.974 20.514m77.78 16.11h31.524c-.926 8.577-8.112 12.867-15.413 12.867-7.186 0-14.142-4.174-16.111-12.867m45.317-11.359h-45.085c2.202-8.228 9.387-12.515 18.429-12.515 5.91 0 11.127 1.62 15.53 5.446l7.069-7.534c-4.984-6.259-13.674-10.662-24.339-10.662-16.572 0-31.408 11.242-31.408 31.294 0 20.282 15.065 31.292 30.482 31.292 15.3 0 32.683-10.778 29.322-37.321m66.076 11.359v-35.466h-15.53v32.916c0 8.809-4.751 14.606-12.866 14.606-7.996 0-12.864-5.797-12.864-14.606v-32.916h-15.533v60.27h15.533v-8.229c3.36 5.333 9.387 9.387 18.429 9.387 12.401 0 22.831-7.65 22.831-25.962m57.847-5.329c0 11.356-8.112 17.386-16.805 17.386s-16.808-6.143-16.808-17.386c0-11.243 8.115-17.386 16.808-17.386s16.805 6.027 16.805 17.386m15.184 52.154v-82.29h-15.533v8.112h-.345c-1.508-3.361-8.464-9.271-19.242-9.271-14.025 0-28.974 10.43-28.974 31.295 0 20.862 14.949 31.292 28.974 31.292 10.778 0 17.734-5.91 19.242-9.271h.229v30.133zm23.421-46.825h31.524c-.926 8.577-8.112 12.867-15.413 12.867-7.186 0-14.142-4.174-16.111-12.867m45.317-11.359h-45.085c2.202-8.228 9.387-12.515 18.429-12.515 5.91 0 11.127 1.62 15.53 5.446l7.069-7.534c-4.981-6.259-13.674-10.662-24.339-10.662-16.572 0-31.408 11.242-31.408 31.294 0 20.282 15.065 31.292 30.482 31.292 15.3 0 32.683-10.778 29.322-37.321m47.764 36.861v-14.836c-1.391.23-2.55.346-3.941.346-11.705 0-19.007-8.112-19.007-20.165v-26.311h-15.532v60.269h15.532v-15.646c2.086 9.271 7.996 16.805 18.891 16.805 1.391 0 2.666-.116 4.057-.462"/>
  </g>
  <g fill="#343434" clip-path="url(#c)" transform="matrix(1.33333 0 0 -1.33333 -562.488 501.687)">
    <path d="M433.68 299.133a5.907 5.907 0 1 1-11.815 0 5.907 5.907 0 0 1 11.815 0"/>
    <path d="M470.394 304.333a5.907 5.907 0 1 0 0 11.815 5.907 5.907 0 0 0 0-11.815m91.107 50.25H459.949a3.73 3.73 0 0 1-3.674-3.088l-6.231-35.702h3.374a5.554 5.554 0 1 0 0-11.106h-9.838a5.554 5.554 0 0 1 0-11.107h16.756a5.554 5.554 0 0 0 0-11.107h-30.783a5.553 5.553 0 1 1 0-11.107h119.052a3.73 3.73 0 0 1 3.678 3.104l12.895 75.758a3.73 3.73 0 0 1-3.677 4.355"/>
    <path d="M453.257 361.261h102.59v3.831a3.713 3.713 0 0 1-3.713 3.713h-54.182c-2.079 0-3.684 1.705-3.713 3.783a3.73 3.73 0 0 1-3.73 3.677h-45.753a3.713 3.713 0 0 1-3.713-3.713l.511-56.731 8.045 42.366a3.714 3.714 0 0 0 3.658 3.074"/>
  </g>
  <g fill="#ffcc08" clip-path="url(#d)" transform="matrix(1.33333 0 0 -1.33333 580.032 501.687)">
    <path d="M433.68 299.133a5.907 5.907 0 1 1-11.815 0 5.907 5.907 0 0 1 11.815 0"/>
    <path d="M470.394 304.333a5.907 5.907 0 1 0 0 11.815 5.907 5.907 0 0 0 0-11.815m91.107 50.25H459.949a3.73 3.73 0 0 1-3.674-3.088l-6.231-35.702h3.374a5.554 5.554 0 1 0 0-11.106h-9.838a5.554 5.554 0 0 1 0-11.107h16.756a5.554 5.554 0 0 0 0-11.107h-30.783a5.553 5.553 0 1 1 0-11.107h119.052a3.73 3.73 0 0 1 3.678 3.104l12.895 75.758a3.73 3.73 0 0 1-3.677 4.355"/>
    <path d="M453.257 361.261h102.59v3.831a3.713 3.713 0 0 1-3.713 3.713h-54.182c-2.079 0-3.684 1.705-3.713 3.783a3.73 3.73 0 0 1-3.73 3.677h-45.753a3.713 3.713 0 0 1-3.713-3.713l.511-56.731 8.045 42.366a3.714 3.714 0 0 0 3.658 3.074m-202.891-22.503v-19.703h28.283v-13.561h-28.283v-34.539h-15.878v82.292h46.246v-14.489Zm40.342-7.534h15.533v-60.269h-15.533zm0 22.023h15.533V339.57h-15.533zm27.357 0h15.533v-82.292h-15.533zm38.948-46.823h31.524c-.926 8.575-8.112 12.864-15.413 12.864-7.186 0-14.142-4.173-16.111-12.864m45.317-11.359h-45.085c2.202-8.231 9.387-12.518 18.429-12.518 5.91 0 11.127 1.623 15.53 5.446l7.069-7.531c-4.984-6.259-13.674-10.665-24.339-10.665-16.572 0-31.408 11.242-31.408 31.294 0 20.282 15.065 31.294 30.482 31.294 15.3 0 32.683-10.78 29.322-37.32M231.592 190.86l12.864 5.913c2.317-6.375 7.534-12.056 15.878-12.056 6.491 0 12.056 3.364 12.056 10.549 0 6.027-3.596 8.693-11.94 12.053l-5.216 1.969c-11.24 4.523-20.514 10.782-20.514 23.3 0 13.79 11.475 22.366 25.382 22.366 14.141 0 22.718-8.69 26.427-17.382l-11.821-6.608c-3.477 6.608-7.999 9.852-14.026 9.852-5.91 0-10.316-2.899-10.316-8.345 0-4.289 2.434-7.65 11.475-11.126l5.565-2.205c14.371-5.794 21.557-12.285 21.557-23.99 0-16.692-14.604-24.804-28.397-24.804-14.371 0-26.078 8.461-28.974 20.514m77.78 16.11h31.524c-.926 8.577-8.112 12.867-15.413 12.867-7.186 0-14.142-4.174-16.111-12.867m45.317-11.359h-45.085c2.202-8.228 9.387-12.515 18.429-12.515 5.91 0 11.127 1.62 15.53 5.446l7.069-7.534c-4.984-6.259-13.674-10.662-24.339-10.662-16.572 0-31.408 11.242-31.408 31.294 0 20.282 15.065 31.292 30.482 31.292 15.3 0 32.683-10.778 29.322-37.321m66.076 11.359v-35.466h-15.53v32.916c0 8.809-4.751 14.606-12.866 14.606-7.996 0-12.864-5.797-12.864-14.606v-32.916h-15.533v60.27h15.533v-8.229c3.36 5.333 9.387 9.387 18.429 9.387 12.401 0 22.831-7.65 22.831-25.962m57.847-5.329c0 11.356-8.112 17.386-16.805 17.386s-16.808-6.143-16.808-17.386c0-11.243 8.115-17.386 16.808-17.386s16.805 6.027 16.805 17.386m15.184 52.154v-82.29h-15.533v8.112h-.345c-1.508-3.361-8.464-9.271-19.242-9.271-14.025 0-28.974 10.43-28.974 31.295 0 20.862 14.949 31.292 28.974 31.292 10.778 0 17.734-5.91 19.242-9.271h.229v30.133zm23.421-46.825h31.524c-.926 8.577-8.112 12.867-15.413 12.867-7.186 0-14.142-4.174-16.111-12.867m45.317-11.359h-45.085c2.202-8.228 9.387-12.515 18.429-12.515 5.91 0 11.127 1.62 15.53 5.446l7.069-7.534c-4.981-6.259-13.674-10.662-24.339-10.662-16.572 0-31.408 11.242-31.408 31.294 0 20.282 15.065 31.292 30.482 31.292 15.3 0 32.683-10.778 29.322-37.321m47.764 36.861v-14.836c-1.391.23-2.55.346-3.941.346-11.705 0-19.007-8.112-19.007-20.165v-26.311h-15.532v60.269h15.532v-15.646c2.086 9.271 7.996 16.805 18.891 16.805 1.391 0 2.666-.116 4.057-.462"/>
  </g>
  <g fill="#1d1d1b" clip-path="url(#e)" transform="matrix(1.33333 0 0 -1.33333 1722.552 501.687)">
    <path d="M433.68 299.133a5.907 5.907 0 1 1-11.815 0 5.907 5.907 0 0 1 11.815 0"/>
    <path d="M470.394 304.333a5.907 5.907 0 1 0 0 11.815 5.907 5.907 0 0 0 0-11.815m91.107 50.25H459.949a3.73 3.73 0 0 1-3.674-3.088l-6.231-35.702h3.374a5.554 5.554 0 1 0 0-11.106h-9.838a5.554 5.554 0 0 1 0-11.107h16.756a5.554 5.554 0 0 0 0-11.107h-30.783a5.553 5.553 0 1 1 0-11.107h119.052a3.73 3.73 0 0 1 3.678 3.104l12.895 75.758a3.73 3.73 0 0 1-3.677 4.355"/>
    <path d="M453.257 361.261h102.59v3.831a3.713 3.713 0 0 1-3.713 3.713h-54.182c-2.079 0-3.684 1.705-3.713 3.783a3.73 3.73 0 0 1-3.73 3.677h-45.753a3.713 3.713 0 0 1-3.713-3.713l.511-56.731 8.045 42.366a3.714 3.714 0 0 0 3.658 3.074m-202.891-22.503v-19.703h28.283v-13.561h-28.283v-34.539h-15.878v82.292h46.246v-14.489Zm40.342-7.534h15.533v-60.269h-15.533zm0 22.023h15.533V339.57h-15.533zm27.357 0h15.533v-82.292h-15.533zm38.948-46.823h31.524c-.926 8.575-8.112 12.864-15.413 12.864-7.186 0-14.142-4.173-16.111-12.864m45.317-11.359h-45.085c2.202-8.231 9.387-12.518 18.429-12.518 5.91 0 11.127 1.623 15.53 5.446l7.069-7.531c-4.984-6.259-13.674-10.665-24.339-10.665-16.572 0-31.408 11.242-31.408 31.294 0 20.282 15.065 31.294 30.482 31.294 15.3 0 32.683-10.78 29.322-37.32M231.592 190.86l12.864 5.913c2.317-6.375 7.534-12.056 15.878-12.056 6.491 0 12.056 3.364 12.056 10.549 0 6.027-3.596 8.693-11.94 12.053l-5.216 1.969c-11.24 4.523-20.514 10.782-20.514 23.3 0 13.79 11.475 22.366 25.382 22.366 14.141 0 22.718-8.69 26.427-17.382l-11.821-6.608c-3.477 6.608-7.999 9.852-14.026 9.852-5.91 0-10.316-2.899-10.316-8.345 0-4.289 2.434-7.65 11.475-11.126l5.565-2.205c14.371-5.794 21.557-12.285 21.557-23.99 0-16.692-14.604-24.804-28.397-24.804-14.371 0-26.078 8.461-28.974 20.514m77.78 16.11h31.524c-.926 8.577-8.112 12.867-15.413 12.867-7.186 0-14.142-4.174-16.111-12.867m45.317-11.359h-45.085c2.202-8.228 9.387-12.515 18.429-12.515 5.91 0 11.127 1.62 15.53 5.446l7.069-7.534c-4.984-6.259-13.674-10.662-24.339-10.662-16.572 0-31.408 11.242-31.408 31.294 0 20.282 15.065 31.292 30.482 31.292 15.3 0 32.683-10.778 29.322-37.321m66.076 11.359v-35.466h-15.53v32.916c0 8.809-4.751 14.606-12.866 14.606-7.996 0-12.864-5.797-12.864-14.606v-32.916h-15.533v60.27h15.533v-8.229c3.36 5.333 9.387 9.387 18.429 9.387 12.401 0 22.831-7.65 22.831-25.962m57.847-5.329c0 11.356-8.112 17.386-16.805 17.386s-16.808-6.143-16.808-17.386c0-11.243 8.115-17.386 16.808-17.386s16.805 6.027 16.805 17.386m15.184 52.154v-82.29h-15.533v8.112h-.345c-1.508-3.361-8.464-9.271-19.242-9.271-14.025 0-28.974 10.43-28.974 31.295 0 20.862 14.949 31.292 28.974 31.292 10.778 0 17.734-5.91 19.242-9.271h.229v30.133zm23.421-46.825h31.524c-.926 8.577-8.112 12.867-15.413 12.867-7.186 0-14.142-4.174-16.111-12.867m45.317-11.359h-45.085c2.202-8.228 9.387-12.515 18.429-12.515 5.91 0 11.127 1.62 15.53 5.446l7.069-7.534c-4.981-6.259-13.674-10.662-24.339-10.662-16.572 0-31.408 11.242-31.408 31.294 0 20.282 15.065 31.292 30.482 31.292 15.3 0 32.683-10.778 29.322-37.321m47.764 36.861v-14.836c-1.391.23-2.55.346-3.941.346-11.705 0-19.007-8.112-19.007-20.165v-26.311h-15.532v60.269h15.532v-15.646c2.086 9.271 7.996 16.805 18.891 16.805 1.391 0 2.666-.116 4.057-.462"/>
  </g>
  <g fill="#fff" clip-path="url(#f)" transform="matrix(1.33333 0 0 -1.33333 2865.072 501.687)">
    <path d="M433.68 299.133a5.907 5.907 0 1 1-11.815 0 5.907 5.907 0 0 1 11.815 0"/>
    <path d="M470.394 304.333a5.907 5.907 0 1 0 0 11.815 5.907 5.907 0 0 0 0-11.815m91.107 50.25H459.949a3.73 3.73 0 0 1-3.674-3.088l-6.231-35.702h3.374a5.554 5.554 0 1 0 0-11.106h-9.838a5.554 5.554 0 0 1 0-11.107h16.756a5.554 5.554 0 0 0 0-11.107h-30.783a5.553 5.553 0 1 1 0-11.107h119.052a3.73 3.73 0 0 1 3.678 3.104l12.895 75.758a3.73 3.73 0 0 1-3.677 4.355"/>
    <path d="M453.257 361.261h102.59v3.831a3.713 3.713 0 0 1-3.713 3.713h-54.182c-2.079 0-3.684 1.705-3.713 3.783a3.73 3.73 0 0 1-3.73 3.677h-45.753a3.713 3.713 0 0 1-3.713-3.713l.511-56.731 8.045 42.366a3.714 3.714 0 0 0 3.658 3.074m-202.891-22.503v-19.703h28.283v-13.561h-28.283v-34.539h-15.878v82.292h46.246v-14.489Zm40.342-7.534h15.533v-60.269h-15.533zm0 22.023h15.533V339.57h-15.533zm27.357 0h15.533v-82.292h-15.533zm38.948-46.823h31.524c-.926 8.575-8.112 12.864-15.413 12.864-7.186 0-14.142-4.173-16.111-12.864m45.317-11.359h-45.085c2.202-8.231 9.387-12.518 18.429-12.518 5.91 0 11.127 1.623 15.53 5.446l7.069-7.531c-4.984-6.259-13.674-10.665-24.339-10.665-16.572 0-31.408 11.242-31.408 31.294 0 20.282 15.065 31.294 30.482 31.294 15.3 0 32.683-10.78 29.322-37.32M231.592 190.86l12.864 5.913c2.317-6.375 7.534-12.056 15.878-12.056 6.491 0 12.056 3.364 12.056 10.549 0 6.027-3.596 8.693-11.94 12.053l-5.216 1.969c-11.24 4.523-20.514 10.782-20.514 23.3 0 13.79 11.475 22.366 25.382 22.366 14.141 0 22.718-8.69 26.427-17.382l-11.821-6.608c-3.477 6.608-7.999 9.852-14.026 9.852-5.91 0-10.316-2.899-10.316-8.345 0-4.289 2.434-7.65 11.475-11.126l5.565-2.205c14.371-5.794 21.557-12.285 21.557-23.99 0-16.692-14.604-24.804-28.397-24.804-14.371 0-26.078 8.461-28.974 20.514m77.78 16.11h31.524c-.926 8.577-8.112 12.867-15.413 12.867-7.186 0-14.142-4.174-16.111-12.867m45.317-11.359h-45.085c2.202-8.228 9.387-12.515 18.429-12.515 5.91 0 11.127 1.62 15.53 5.446l7.069-7.534c-4.984-6.259-13.674-10.662-24.339-10.662-16.572 0-31.408 11.242-31.408 31.294 0 20.282 15.065 31.292 30.482 31.292 15.3 0 32.683-10.778 29.322-37.321m66.076 11.359v-35.466h-15.53v32.916c0 8.809-4.751 14.606-12.866 14.606-7.996 0-12.864-5.797-12.864-14.606v-32.916h-15.533v60.27h15.533v-8.229c3.36 5.333 9.387 9.387 18.429 9.387 12.401 0 22.831-7.65 22.831-25.962m57.847-5.329c0 11.356-8.112 17.386-16.805 17.386s-16.808-6.143-16.808-17.386c0-11.243 8.115-17.386 16.808-17.386s16.805 6.027 16.805 17.386m15.184 52.154v-82.29h-15.533v8.112h-.345c-1.508-3.361-8.464-9.271-19.242-9.271-14.025 0-28.974 10.43-28.974 31.295 0 20.862 14.949 31.292 28.974 31.292 10.778 0 17.734-5.91 19.242-9.271h.229v30.133zm23.421-46.825h31.524c-.926 8.577-8.112 12.867-15.413 12.867-7.186 0-14.142-4.174-16.111-12.867m45.317-11.359h-45.085c2.202-8.228 9.387-12.515 18.429-12.515 5.91 0 11.127 1.62 15.53 5.446l7.069-7.534c-4.981-6.259-13.674-10.662-24.339-10.662-16.572 0-31.408 11.242-31.408 31.294 0 20.282 15.065 31.292 30.482 31.292 15.3 0 32.683-10.778 29.322-37.321m47.764 36.861v-14.836c-1.391.23-2.55.346-3.941.346-11.705 0-19.007-8.112-19.007-20.165v-26.311h-15.532v60.269h15.532v-15.646c2.086 9.271 7.996 16.805 18.891 16.805 1.391 0 2.666-.116 4.057-.462"/>
  </g>
</svg>
