<svg width="380" height="206" viewBox="0 0 380 206" fill="none" xmlns="http://www.w3.org/2000/svg">
<path d="M202.68 77.14C202.68 75.9711 202.333 74.8284 201.684 73.8565C201.035 72.8847 200.112 72.1272 199.032 71.6798C197.952 71.2325 196.763 71.1155 195.617 71.3435C194.471 71.5716 193.418 72.1344 192.591 72.961C191.764 73.7875 191.202 74.8406 190.974 75.987C190.746 77.1334 190.863 78.3217 191.31 79.4017C191.757 80.4816 192.515 81.4046 193.487 82.054C194.458 82.7034 195.601 83.05 196.77 83.05C197.546 83.0513 198.316 82.8993 199.033 82.6028C199.751 82.3063 200.403 81.871 200.952 81.3219C201.501 80.7729 201.936 80.1208 202.233 79.4032C202.529 78.6856 202.681 77.9165 202.68 77.14Z" fill="#FFCC00"/>
<path d="M330.5 21.6899H229C228.122 21.6926 227.273 22.0034 226.6 22.5681C225.928 23.1327 225.475 23.9155 225.32 24.7799L219 60.4799H222.38C223.813 60.5407 225.166 61.1526 226.158 62.1877C227.15 63.2228 227.704 64.6012 227.704 66.0349C227.704 67.4687 227.15 68.8471 226.158 69.8822C225.166 70.9173 223.813 71.5291 222.38 71.5899H212.54C211.108 71.6507 209.754 72.2626 208.762 73.2977C207.77 74.3328 207.216 75.7111 207.216 77.1449C207.216 78.5787 207.77 79.9571 208.762 80.9922C209.754 82.0273 211.108 82.6392 212.54 82.7H229.3C230.772 82.7 232.184 83.2847 233.224 84.3255C234.265 85.3663 234.85 86.778 234.85 88.2499C234.85 89.7219 234.265 91.1336 233.224 92.1744C232.184 93.2152 230.772 93.7999 229.3 93.7999H198.55C197.077 93.8026 195.665 94.3895 194.625 95.4319C193.584 96.4744 193 97.8871 193 99.3599C193.003 100.831 193.588 102.241 194.628 103.281C195.669 104.322 197.079 104.907 198.55 104.91H317.61C318.489 104.91 319.341 104.599 320.013 104.032C320.684 103.464 321.133 102.677 321.28 101.81L334.18 26.0499C334.272 25.5143 334.245 24.9651 334.103 24.4407C333.96 23.9163 333.705 23.4294 333.354 23.0141C333.003 22.5988 332.566 22.2651 332.073 22.0364C331.58 21.8077 331.043 21.6894 330.5 21.6899ZM239.39 71.9399C238.221 71.9399 237.078 71.5931 236.106 70.9432C235.133 70.2934 234.376 69.3698 233.929 68.2893C233.482 67.2088 233.365 66.02 233.594 64.8733C233.823 63.7266 234.387 62.6735 235.215 61.8474C236.042 61.0213 237.096 60.4592 238.243 60.2323C239.39 60.0054 240.579 60.1238 241.659 60.5727C242.738 61.0215 243.661 61.7806 244.309 62.7538C244.957 63.727 245.302 64.8706 245.3 66.0399C245.3 66.8156 245.147 67.5836 244.85 68.3001C244.553 69.0166 244.117 69.6674 243.568 70.2154C243.019 70.7634 242.368 71.1978 241.651 71.4937C240.934 71.7896 240.166 71.9413 239.39 71.9399Z" fill="#FFCC00"/>
<path d="M222.26 15H324.85V11.17C324.847 10.1851 324.454 9.24149 323.757 8.54602C323.06 7.85055 322.115 7.46 321.13 7.46001H267C266.007 7.44945 265.059 7.04557 264.364 6.33696C263.668 5.62835 263.282 4.67285 263.29 3.67999C263.277 2.69943 262.878 1.76349 262.18 1.07475C261.482 0.38602 260.541 -8.80955e-05 259.56 1.50769e-08H213.75C213.263 1.50769e-08 212.78 0.0959647 212.33 0.28241C211.88 0.468855 211.471 0.742134 211.127 1.08664C210.782 1.43114 210.509 1.84012 210.322 2.29024C210.136 2.74036 210.04 3.2228 210.04 3.71001L210.55 60.44L218.6 18.08C218.749 17.2173 219.198 16.435 219.867 15.8714C220.537 15.3077 221.385 14.9991 222.26 15Z" fill="#FFCC00"/>
<path d="M19.37 37.52V57.22H47.65V70.78H19.37V105.32H3.49001V23H49.73V37.49L19.37 37.52Z" fill="#333333"/>
<path d="M59.71 23H75.24V36.68H59.71V23ZM59.71 45H75.24V105.27H59.71V45Z" fill="#333333"/>
<path d="M87.06 23H102.6V105.29H87.06V23Z" fill="#333333"/>
<path d="M171.33 81.2101H126.25C128.45 89.4401 135.63 93.7301 144.67 93.7301C150.346 93.9182 155.886 91.9738 160.2 88.2801L167.27 95.8101C162.27 102.07 153.6 106.48 142.93 106.48C126.36 106.48 111.53 95.2401 111.53 75.1801C111.53 54.9001 126.59 43.8901 142.01 43.8901C157.43 43.8901 174.69 54.6701 171.33 81.2101ZM126 69.8501H157.53C156.6 61.2801 149.42 56.9901 142.11 56.9901C134.8 56.9901 128 61.1601 126 69.8501Z" fill="#333333"/>
<path d="M0.589996 185.42L13.46 179.5C15.77 185.88 20.99 191.56 29.33 191.56C35.82 191.56 41.39 188.19 41.39 181.01C41.39 175.01 37.79 172.32 29.45 168.96L24.23 166.96C12.99 162.43 3.72 156.18 3.72 143.66C3.72 129.87 15.2 121.29 29.1 121.29C43.24 121.29 51.82 129.98 55.53 138.67L43.71 145.28C40.23 138.67 35.71 135.43 29.71 135.43C23.71 135.43 19.4 138.33 19.4 143.77C19.4 148.06 21.83 151.42 30.87 154.9L36.44 157.11C50.81 162.9 57.99 169.39 57.99 181.11C57.99 197.8 43.39 205.91 29.6 205.91C15.2 205.93 3.49 197.47 0.589996 185.42Z" fill="#333333"/>
<path d="M123.69 180.66H78.6C80.81 188.89 87.99 193.18 97.03 193.18C102.706 193.368 108.246 191.424 112.56 187.73L119.63 195.27C114.63 201.53 105.96 205.93 95.29 205.93C78.72 205.93 63.88 194.69 63.88 174.63C63.88 154.35 78.95 143.34 94.37 143.34C109.79 143.34 127.05 154.12 123.69 180.66ZM78.37 169.3H109.9C108.97 160.73 101.78 156.44 94.48 156.44C87.18 156.44 80.34 160.61 78.37 169.3Z" fill="#333333"/>
<path d="M189.76 169.3V204.77H174.23V171.85C174.23 163.05 169.48 157.25 161.37 157.25C153.26 157.25 148.5 163.05 148.5 171.85V204.77H133V144.5H148.5V152.73C151.87 147.4 157.89 143.34 166.93 143.34C179.33 143.34 189.76 151 189.76 169.3Z" fill="#333333"/>
<path d="M262.8 122.48V204.77H247.26V196.66H246.92C245.41 200.02 238.45 205.93 227.68 205.93C213.68 205.93 198.68 195.5 198.68 174.63C198.68 153.76 213.63 143.34 227.68 143.34C238.45 143.34 245.41 149.25 246.92 152.61H247.15V122.48H262.8ZM247.61 174.63C247.61 163.28 239.5 157.25 230.81 157.25C222.12 157.25 214 163.39 214 174.63C214 185.87 222.11 192 230.81 192C239.51 192 247.61 186 247.61 174.63Z" fill="#333333"/>
<path d="M331.53 180.66H286.45C288.65 188.89 295.84 193.18 304.88 193.18C310.556 193.368 316.096 191.424 320.41 187.73L327.48 195.27C322.48 201.53 313.8 205.93 303.14 205.93C286.57 205.93 271.73 194.69 271.73 174.63C271.73 154.35 286.8 143.34 302.21 143.34C317.62 143.34 334.9 154.12 331.53 180.66ZM286.22 169.3H317.74C316.82 160.73 309.63 156.44 302.33 156.44C295.03 156.44 288.19 160.61 286.22 169.3Z" fill="#333333"/>
<path d="M379.3 143.8V158.64C377.999 158.409 376.681 158.292 375.36 158.29C363.65 158.29 356.36 166.41 356.36 178.46V204.77H340.82V144.5H356.35V160.15C358.44 150.88 364.35 143.34 375.24 143.34C376.607 143.325 377.971 143.479 379.3 143.8Z" fill="#333333"/>
</svg>
