<?xml version="1.0" standalone="no"?>
<!DOCTYPE svg PUBLIC "-//W3C//DTD SVG 20010904//EN"
 "http://www.w3.org/TR/2001/REC-SVG-20010904/DTD/svg10.dtd">
<svg version="1.0" xmlns="http://www.w3.org/2000/svg"
 width="764.000000pt" height="764.000000pt" viewBox="0 0 764.000000 764.000000"
 preserveAspectRatio="xMidYMid meet">
<metadata>
Created by potrace 1.14, written by Peter Selinger 2001-2017
</metadata>
<g transform="translate(0.000000,764.000000) scale(0.100000,-0.100000)"
fill="#000000" stroke="none">
<path d="M1136 6590 c-50 -25 -73 -50 -96 -103 -20 -46 -20 -29 -5 -1492 3
-297 6 -547 5 -555 0 -8 0 -26 1 -40 0 -14 1 -238 2 -497 1 -260 5 -473 8
-473 6 0 38 157 63 304 3 16 10 52 15 80 6 28 13 62 15 76 3 14 7 34 9 45 6
26 19 104 23 130 1 11 3 20 4 20 2 0 6 20 14 67 3 21 10 57 15 80 6 24 12 59
16 78 3 19 8 49 12 65 3 17 7 39 9 50 3 18 47 252 57 300 3 11 11 54 18 95 14
80 15 89 18 93 2 1 4 16 6 32 2 17 7 41 11 55 3 14 8 41 10 60 3 19 7 43 10
52 3 10 7 30 10 45 2 16 7 42 11 58 4 17 7 35 8 40 1 9 9 56 21 120 2 11 16
83 30 160 15 77 33 153 41 168 18 36 67 79 106 94 24 9 704 12 2785 12 l2753
1 -2 124 c-2 163 -20 207 -107 254 l-43 24 -1475 0 c-1002 0 -1487 4 -1516 11
-45 11 -127 85 -129 115 0 9 -3 26 -5 37 -2 11 -7 38 -10 59 -10 72 -46 121
-116 157 -36 18 -76 19 -1300 19 -1233 -1 -1264 -1 -1302 -20z"/>
<path d="M2004 5452 c-63 -10 -123 -52 -151 -106 -15 -28 -17 -39 -28 -106 -3
-19 -9 -57 -14 -85 -5 -27 -13 -67 -16 -89 -4 -21 -9 -48 -11 -60 -3 -11 -7
-39 -10 -61 -3 -22 -7 -47 -10 -56 -2 -9 -7 -32 -9 -50 -3 -19 -7 -45 -10 -59
-8 -37 -12 -63 -39 -221 -14 -79 -34 -196 -45 -259 -11 -63 -23 -133 -26 -155
-4 -22 -8 -47 -10 -55 -2 -8 -6 -28 -9 -45 -6 -37 -34 -201 -41 -235 -2 -14
-6 -41 -9 -60 -2 -19 -7 -42 -10 -50 -5 -14 -10 -43 -23 -135 -3 -22 -11 -69
-19 -105 -7 -35 -12 -66 -10 -68 2 -2 59 -5 127 -6 151 -4 194 -18 264 -90 65
-66 89 -132 82 -219 -3 -34 -7 -70 -9 -79 -8 -36 -71 -119 -111 -147 -77 -52
-98 -55 -427 -56 -168 -1 -321 -5 -340 -9 -100 -22 -193 -116 -215 -216 -24
-107 18 -238 91 -290 19 -14 41 -30 47 -36 39 -35 86 -38 582 -40 270 -1 501
-5 515 -8 30 -7 81 -27 95 -38 88 -67 128 -138 132 -232 2 -74 -11 -138 -37
-170 -53 -67 -90 -99 -143 -120 l-59 -24 -856 0 c-472 0 -872 -3 -891 -7 -126
-22 -230 -143 -235 -272 -5 -128 51 -221 174 -289 34 -19 100 -19 3260 -22
2271 -2 3236 0 3262 8 71 20 118 75 137 161 10 46 13 61 31 174 6 39 20 117
31 175 10 58 21 123 24 145 2 22 7 51 10 65 6 31 19 101 39 225 3 17 7 39 9
50 4 19 16 95 22 140 2 11 10 58 19 105 8 47 18 101 21 120 3 19 14 85 25 145
10 61 21 126 24 145 3 19 8 46 11 60 3 14 7 39 10 55 5 34 12 76 25 155 5 30
12 72 16 94 3 21 8 48 10 60 2 11 7 37 10 56 3 19 7 49 10 65 3 17 7 37 9 45
2 8 6 31 9 50 2 19 11 76 20 125 8 50 18 107 22 129 3 21 8 48 10 60 2 11 7
37 10 56 3 19 8 49 11 65 8 46 11 66 18 110 3 22 7 47 10 55 3 8 7 31 9 50 3
19 8 46 11 60 4 14 8 41 9 60 2 19 4 35 6 35 1 0 3 9 4 20 2 17 10 63 21 125
1 8 6 35 10 60 4 25 9 54 11 65 2 10 6 35 9 55 3 20 8 47 11 60 2 14 7 40 10
59 2 19 6 46 9 60 14 72 35 197 40 229 2 15 7 39 9 53 3 14 8 41 10 60 3 19 5
36 6 39 3 6 3 11 14 80 5 30 10 64 13 75 27 133 -8 224 -105 271 -35 17 -152
18 -2768 19 -1502 0 -2739 -1 -2750 -3z m666 -2060 c14 -5 30 -11 35 -12 54
-13 134 -89 167 -158 34 -71 32 -198 -4 -267 -31 -59 -65 -97 -118 -130 -36
-22 -127 -51 -160 -49 -41 1 -110 16 -115 25 -4 5 -14 9 -24 9 -23 0 -103 70
-130 113 -57 92 -63 211 -16 310 33 70 96 120 205 164 30 12 125 9 160 -5z"/>
<path d="M263 2808 c-144 -22 -253 -145 -259 -293 -4 -103 27 -178 101 -248
75 -70 188 -99 283 -71 23 7 42 9 42 6 0 -4 4 -2 8 3 4 6 19 16 35 24 49 26
125 113 128 148 0 5 5 13 10 19 5 7 12 39 15 71 21 207 -157 373 -363 341z"/>
</g>
</svg>
