<?xml version="1.0" standalone="no"?>
<!DOCTYPE svg PUBLIC "-//W3C//DTD SVG 1.1//EN" "http://www.w3.org/Graphics/SVG/1.1/DTD/svg11.dtd" >
<svg xmlns="http://www.w3.org/2000/svg">
<metadata>Generated by IcoMoon</metadata>
<defs>
<font id="FileSender-Icons" horiz-adv-x="1024">
<font-face units-per-em="1024" ascent="960" descent="-64" />
<missing-glyph horiz-adv-x="1024" />
<glyph unicode="&#x20;" horiz-adv-x="512" d="" />
<glyph unicode="&#xe900;" glyph-name="chevron-up" d="M512 487.479l-166.402-166.4c-7.822-7.821-17.778-11.733-29.867-11.733s-22.045 3.913-29.867 11.733c-7.822 7.821-11.733 17.779-11.733 29.867s3.911 22.046 11.733 29.867l196.269 196.266c4.267 4.267 8.887 7.289 13.867 9.067 4.975 1.778 10.308 2.667 16 2.667 5.687 0 11.021-0.889 16-2.667 4.975-1.777 9.6-4.8 13.867-9.067l196.267-196.266c7.821-7.821 11.733-17.779 11.733-29.867s-3.913-22.046-11.733-29.867c-7.825-7.821-17.779-11.733-29.867-11.733-12.092 0-22.046 3.913-29.867 11.733l-166.4 166.4z" />
<glyph unicode="&#xe901;" glyph-name="chevron-right" d="M537.6 448.009l-166.398 166.4c-7.822 7.822-11.733 17.777-11.733 29.867s3.911 22.044 11.733 29.867c7.822 7.822 17.778 11.733 29.867 11.733s22.045-3.911 29.865-11.733l196.267-196.267c4.267-4.267 7.292-8.887 9.067-13.867 1.779-4.979 2.667-10.313 2.667-16s-0.887-11.021-2.667-16c-1.775-4.979-4.8-9.6-9.067-13.867l-196.267-196.267c-7.82-7.821-17.776-11.733-29.865-11.733s-22.045 3.913-29.867 11.733c-7.822 7.821-11.733 17.779-11.733 29.867s3.911 22.046 11.733 29.867l166.398 166.4z" />
<glyph unicode="&#xe902;" glyph-name="search" d="M405.333 277.333c-77.511 0-143.111 26.846-196.8 80.533s-80.533 119.287-80.533 196.8c0 77.511 26.845 143.111 80.533 196.8s119.289 80.533 196.8 80.533c77.513 0 143.113-26.845 196.8-80.533s80.533-119.289 80.533-196.8c0-31.287-4.979-60.8-14.933-88.533s-23.467-52.267-40.533-73.6l238.933-238.933c7.821-7.821 11.733-17.779 11.733-29.867s-3.913-22.046-11.733-29.867c-7.821-7.821-17.779-11.733-29.867-11.733s-22.046 3.913-29.867 11.733l-238.933 238.933c-21.333-17.067-45.867-30.579-73.6-40.533s-57.246-14.933-88.533-14.933zM405.333 362.667c53.333 0 98.667 18.667 136 56s56 82.667 56 136c0 53.333-18.667 98.667-56 136s-82.667 56-136 56c-53.333 0-98.667-18.667-136-56s-56-82.667-56-136c0-53.333 18.667-98.667 56-136s82.667-56 136-56z" />
<glyph unicode="&#xe903;" glyph-name="box" d="M512 533.333l-170.667-170.667 59.733-59.733 68.267 68.267v-179.2h85.333v179.2l68.267-68.267 59.733 59.733-170.667 170.667zM213.333 618.667v-469.333h597.333v469.333h-597.333zM213.333 64c-23.467 0-43.555 8.354-60.267 25.067s-25.067 36.8-25.067 60.267v532.267c0 9.955 1.6 19.555 4.8 28.8s8 17.778 14.4 25.6l53.333 65.067c7.822 9.955 17.6 17.6 29.333 22.933s24 8 36.8 8h490.667c12.8 0 25.067-2.667 36.8-8s21.513-12.978 29.333-22.933l53.333-65.067c6.4-7.822 11.2-16.355 14.4-25.6s4.8-18.845 4.8-28.8v-532.267c0-23.467-8.354-43.554-25.067-60.267s-36.8-25.067-60.267-25.067h-597.333zM230.4 704h563.2l-36.267 42.667h-490.667l-36.267-42.667z" />
<glyph unicode="&#xe904;" glyph-name="list" d="M298.667 362.667c12.089 0 22.222 4.087 30.4 12.267s12.267 18.313 12.267 30.4c0 12.087-4.089 22.221-12.267 30.4s-18.311 12.267-30.4 12.267c-12.089 0-22.222-4.087-30.4-12.267s-12.267-18.313-12.267-30.4c0-12.087 4.089-22.221 12.267-30.4s18.311-12.267 30.4-12.267zM298.667 533.333c12.089 0 22.222 4.089 30.4 12.267s12.267 18.311 12.267 30.4c0 12.089-4.089 22.222-12.267 30.4s-18.311 12.267-30.4 12.267c-12.089 0-22.222-4.089-30.4-12.267s-12.267-18.311-12.267-30.4c0-12.089 4.089-22.222 12.267-30.4s18.311-12.267 30.4-12.267zM426.667 362.667h298.667c12.087 0 22.221 4.087 30.4 12.267s12.267 18.313 12.267 30.4c0 12.087-4.087 22.221-12.267 30.4s-18.313 12.267-30.4 12.267h-298.667c-12.089 0-22.222-4.087-30.4-12.267s-12.267-18.313-12.267-30.4c0-12.087 4.089-22.221 12.267-30.4s18.311-12.267 30.4-12.267zM426.667 533.333h298.667c12.087 0 22.221 4.089 30.4 12.267s12.267 18.311 12.267 30.4c0 12.089-4.087 22.222-12.267 30.4s-18.313 12.267-30.4 12.267h-298.667c-12.089 0-22.222-4.089-30.4-12.267s-12.267-18.311-12.267-30.4c0-12.089 4.089-22.222 12.267-30.4s18.311-12.267 30.4-12.267zM170.667 149.333c-23.467 0-43.555 8.354-60.267 25.067s-25.067 36.8-25.067 60.267v512c0 23.467 8.355 43.555 25.067 60.267s36.8 25.067 60.267 25.067h682.667c23.467 0 43.554-8.355 60.267-25.067s25.067-36.8 25.067-60.267v-512c0-23.467-8.354-43.554-25.067-60.267s-36.8-25.067-60.267-25.067h-170.667v-42.667c0-12.087-4.087-22.221-12.267-30.4s-18.313-12.267-30.4-12.267h-256c-12.089 0-22.222 4.087-30.4 12.267s-12.267 18.313-12.267 30.4v42.667h-170.667zM170.667 234.667h682.667v512h-682.667v-512z" />
<glyph unicode="&#xe905;" glyph-name="chevron-down" d="M510.929 409.604l166.4 166.4c7.821 7.822 17.779 11.733 29.867 11.733s22.046-3.911 29.867-11.733c7.821-7.823 11.733-17.778 11.733-29.867s-3.913-22.046-11.733-29.867l-196.267-196.267c-4.267-4.267-8.887-7.287-13.867-9.067s-10.313-2.667-16-2.667c-5.687 0-11.021 0.887-16 2.667s-9.6 4.8-13.867 9.067l-196.267 196.267c-7.822 7.821-11.733 17.777-11.733 29.867s3.911 22.044 11.733 29.867c7.823 7.822 17.778 11.733 29.867 11.733s22.045-3.911 29.867-11.733l166.4-166.4z" />
<glyph unicode="&#xe906;" glyph-name="chevron-left" d="M460.8 448.009l166.4-166.4c7.825-7.821 11.733-17.779 11.733-29.867s-3.908-22.046-11.733-29.867c-7.821-7.821-17.775-11.733-29.867-11.733-12.087 0-22.042 3.913-29.867 11.733l-196.265 196.267c-4.267 4.267-7.289 8.887-9.067 13.867s-2.667 10.313-2.667 16c0 5.687 0.889 11.021 2.667 16s4.8 9.6 9.067 13.867l196.265 196.267c7.825 7.822 17.779 11.733 29.867 11.733 12.092 0 22.046-3.911 29.867-11.733 7.825-7.823 11.733-17.778 11.733-29.867s-3.908-22.045-11.733-29.867l-166.4-166.4z" />
<glyph unicode="&#xe907;" glyph-name="info" d="M512 234.667c12.087 0 22.221 4.087 30.4 12.267s12.267 18.313 12.267 30.4v170.667c0 12.087-4.087 22.221-12.267 30.4s-18.313 12.267-30.4 12.267c-12.087 0-22.221-4.087-30.4-12.267s-12.267-18.313-12.267-30.4v-170.667c0-12.087 4.087-22.221 12.267-30.4s18.313-12.267 30.4-12.267zM512 576c12.087 0 22.221 4.089 30.4 12.267s12.267 18.311 12.267 30.4c0 12.089-4.087 22.222-12.267 30.4s-18.313 12.267-30.4 12.267c-12.087 0-22.221-4.089-30.4-12.267s-12.267-18.311-12.267-30.4c0-12.089 4.087-22.222 12.267-30.4s18.313-12.267 30.4-12.267zM512 21.333c-59.021 0-114.489 11.2-166.4 33.6s-97.067 52.8-135.467 91.2c-38.4 38.4-68.8 83.554-91.2 135.467s-33.6 107.379-33.6 166.4c0 59.021 11.2 114.489 33.6 166.4s52.8 97.067 91.2 135.467c38.4 38.4 83.555 68.8 135.467 91.2s107.379 33.6 166.4 33.6c59.021 0 114.487-11.2 166.4-33.6s97.067-52.8 135.467-91.2c38.4-38.4 68.8-83.555 91.2-135.467s33.6-107.379 33.6-166.4c0-59.021-11.2-114.487-33.6-166.4s-52.8-97.067-91.2-135.467c-38.4-38.4-83.554-68.8-135.467-91.2s-107.379-33.6-166.4-33.6zM512 106.667c95.287 0 176 33.067 242.133 99.2s99.2 146.846 99.2 242.133c0 95.289-33.067 176-99.2 242.133s-146.846 99.2-242.133 99.2c-95.289 0-176-33.067-242.133-99.2s-99.2-146.845-99.2-242.133c0-95.287 33.067-176 99.2-242.133s146.845-99.2 242.133-99.2z" />
<glyph unicode="&#xe908;" glyph-name="pencil" d="M178.132 64.004c-14.933-3.554-27.911 0.179-38.933 11.2s-14.755 24-11.2 38.933l42.667 203.733 211.2-211.2-203.733-42.667zM381.865 106.671l-211.2 211.2 488.535 488.533c16.354 16.355 36.621 24.533 60.8 24.533 24.175 0 44.442-8.178 60.8-24.533l89.6-89.6c16.354-16.356 24.533-36.623 24.533-60.8s-8.179-44.445-24.533-60.8l-488.535-488.533zM720 746.671l-441.601-441.6 90.667-90.667 441.601 441.6-90.667 90.667z" />
<glyph unicode="&#xe909;" glyph-name="settings" d="M461.867 21.333c-19.2 0-35.734 6.4-49.601 19.2s-22.222 28.446-25.067 46.933l-9.6 70.4c-9.245 3.554-17.955 7.821-26.133 12.8s-16.178 10.313-24 16l-66.133-27.733c-17.778-7.821-35.555-8.533-53.333-2.133s-31.645 17.779-41.6 34.133l-50.133 87.467c-9.955 16.354-12.8 33.779-8.533 52.267s13.867 33.779 28.8 45.867l56.533 42.667c-0.711 4.979-1.067 9.779-1.067 14.4v28.8c0 4.621 0.355 9.421 1.067 14.4l-56.533 42.667c-14.933 12.087-24.533 27.378-28.8 45.867s-1.422 35.911 8.533 52.267l50.133 87.467c9.955 16.355 23.822 27.733 41.6 34.133s35.555 5.689 53.333-2.133l66.133-27.733c7.822 5.689 16 11.022 24.533 16s17.067 9.245 25.6 12.8l9.6 70.4c2.845 18.489 11.2 34.133 25.067 46.933s30.401 19.2 49.601 19.2h100.267c19.2 0 35.733-6.4 49.6-19.2s22.221-28.445 25.067-46.933l9.6-70.4c9.242-3.555 17.954-7.822 26.133-12.8 8.175-4.978 16.175-10.311 24-16l66.133 27.733c17.775 7.822 35.554 8.533 53.333 2.133 17.775-6.4 31.642-17.778 41.6-34.133l50.133-87.467c9.954-16.355 12.8-33.778 8.533-52.267s-13.867-33.779-28.8-45.867l-56.533-42.667c0.708-4.979 1.067-9.779 1.067-14.4v-28.8c0-4.621-0.713-9.421-2.133-14.4l56.533-42.667c14.933-12.087 24.533-27.379 28.8-45.867s1.421-35.913-8.533-52.267l-51.2-87.467c-9.958-16.354-23.825-27.733-41.6-34.133-17.779-6.4-35.558-5.687-53.333 2.133l-64 27.733c-7.825-5.687-16-11.021-24.533-16s-17.067-9.246-25.6-12.8l-9.6-70.4c-2.846-18.487-11.2-34.133-25.067-46.933s-30.4-19.2-49.6-19.2h-100.267zM469.333 106.667h84.267l14.933 113.067c22.042 5.687 42.487 14.046 61.333 25.067 18.842 11.021 36.087 24.354 51.733 40l105.6-43.733 41.6 72.533-91.733 69.333c3.554 9.954 6.042 20.446 7.467 31.467 1.421 11.021 2.133 22.221 2.133 33.6s-0.713 22.579-2.133 33.6c-1.425 11.021-3.913 21.513-7.467 31.467l91.733 69.333-41.6 72.533-105.6-44.8c-15.646 16.355-32.892 30.045-51.733 41.067-18.846 11.022-39.292 19.378-61.333 25.067l-13.867 113.067h-84.267l-14.933-113.067c-22.046-5.689-42.49-14.045-61.334-25.067s-36.089-24.355-51.733-40l-105.6 43.733-41.6-72.533 91.733-68.267c-3.555-10.667-6.045-21.333-7.467-32s-2.133-22.046-2.133-34.133c0-11.379 0.711-22.4 2.133-33.067s3.911-21.333 7.467-32l-91.733-69.333 41.6-72.533 105.6 44.8c15.645-16.354 32.889-30.046 51.733-41.067s39.288-19.379 61.334-25.067l13.867-113.067zM514.133 298.667c41.242 0 76.442 14.579 105.6 43.733 29.154 29.154 43.733 64.354 43.733 105.6s-14.579 76.446-43.733 105.6c-29.158 29.155-64.358 43.733-105.6 43.733-41.958 0-77.333-14.578-106.134-43.733-28.8-29.154-43.2-64.354-43.2-105.6s14.4-76.446 43.2-105.6c28.801-29.154 64.176-43.733 106.134-43.733z" />
<glyph unicode="&#xe90a;" glyph-name="add" d="M469.333 405.333h-213.333c-12.089 0-22.222 4.087-30.4 12.267s-12.267 18.313-12.267 30.4c0 12.087 4.089 22.221 12.267 30.4s18.311 12.267 30.4 12.267h213.333v213.333c0 12.089 4.087 22.222 12.267 30.4s18.313 12.267 30.4 12.267c12.087 0 22.221-4.089 30.4-12.267s12.267-18.311 12.267-30.4v-213.333h213.333c12.087 0 22.221-4.087 30.4-12.267s12.267-18.313 12.267-30.4c0-12.087-4.087-22.221-12.267-30.4s-18.313-12.267-30.4-12.267h-213.333v-213.333c0-12.087-4.087-22.221-12.267-30.4s-18.313-12.267-30.4-12.267c-12.087 0-22.221 4.087-30.4 12.267s-12.267 18.313-12.267 30.4v213.333z" />
<glyph unicode="&#xe90b;" glyph-name="edit-date" d="M170.105 549.587h593.402v-81.269h84.77v243.809c0 44.698-38.144 81.27-84.77 81.27h-42.385v81.27h-84.774v-81.27h-339.085v81.27h-84.771v-81.27h-42.386c-47.049 0-84.348-36.571-84.348-81.27l-0.424-568.891c0-44.698 37.723-81.267 84.772-81.267h296.702v81.267h-296.702v406.351zM170.105 712.127h593.402v-81.27h-593.402v81.27zM926.268 294.4l-30.093-28.851-89.856 86.148 30.093 28.847c16.529 15.851 43.234 15.851 59.763 0l30.093-28.847c16.533-15.851 16.533-41.451 0-57.297zM776.222 322.846l89.86-86.148-224.644-215.364h-89.86v86.144l224.644 215.369z" />
<glyph unicode="&#xe90c;" glyph-name="copy" d="M383.99 192c-23.467 0-43.556 8.354-60.267 25.067s-25.067 36.8-25.067 60.267v512c0 23.467 8.355 43.555 25.067 60.267s36.8 25.067 60.267 25.067h384.002c23.467 0 43.554-8.355 60.267-25.067 16.708-16.711 25.067-36.8 25.067-60.267v-512c0-23.467-8.358-43.554-25.067-60.267-16.713-16.713-36.8-25.067-60.267-25.067h-384.002zM383.99 277.333h384.002v512h-384.002v-512zM213.323 21.333c-23.467 0-43.556 8.354-60.267 25.067s-25.067 36.8-25.067 60.267v554.667c0 12.089 4.089 22.222 12.267 30.4s18.311 12.267 30.4 12.267c12.089 0 22.222-4.089 30.4-12.267s12.267-18.311 12.267-30.4v-554.667h426.668c12.087 0 22.221-4.087 30.4-12.267 8.175-8.179 12.267-18.313 12.267-30.4s-4.092-22.221-12.267-30.4c-8.179-8.179-18.313-12.267-30.4-12.267h-426.668z" />
<glyph unicode="&#xe90d;" glyph-name="error" d="M512 234.667c12.087 0 22.221 4.087 30.4 12.267s12.267 18.313 12.267 30.4c0 12.087-4.087 22.221-12.267 30.4s-18.313 12.267-30.4 12.267c-12.087 0-22.221-4.087-30.4-12.267s-12.267-18.313-12.267-30.4c0-12.087 4.087-22.221 12.267-30.4s18.313-12.267 30.4-12.267zM512 405.333c12.087 0 22.221 4.087 30.4 12.267s12.267 18.313 12.267 30.4v170.667c0 12.089-4.087 22.222-12.267 30.4s-18.313 12.267-30.4 12.267c-12.087 0-22.221-4.089-30.4-12.267s-12.267-18.311-12.267-30.4v-170.667c0-12.087 4.087-22.221 12.267-30.4s18.313-12.267 30.4-12.267zM387.2 64c-11.378 0-22.222 2.133-32.533 6.4s-19.378 10.313-27.2 18.133l-174.933 174.933c-7.822 7.821-13.867 16.887-18.133 27.2s-6.4 21.154-6.4 32.533v249.6c0 11.378 2.133 22.222 6.4 32.533s10.311 19.378 18.133 27.2l174.933 174.933c7.822 7.822 16.889 13.867 27.2 18.133s21.155 6.4 32.533 6.4h249.6c11.379 0 22.221-2.133 32.533-6.4s19.379-10.311 27.2-18.133l174.933-174.933c7.821-7.822 13.867-16.889 18.133-27.2s6.4-21.155 6.4-32.533v-249.6c0-11.379-2.133-22.221-6.4-32.533s-10.313-19.379-18.133-27.2l-174.933-174.933c-7.821-7.821-16.887-13.867-27.2-18.133s-21.154-6.4-32.533-6.4h-249.6zM388.267 149.333h247.467l174.933 174.933v247.467l-174.933 174.933h-247.467l-174.933-174.933v-247.467l174.933-174.933z" />
<glyph unicode="&#xe90e;" glyph-name="close" d="M512 388.275l-209.065-209.067c-7.822-7.821-17.778-11.733-29.867-11.733s-22.045 3.913-29.867 11.733c-7.822 7.821-11.733 17.779-11.733 29.867s3.911 22.046 11.733 29.867l209.065 209.067-209.065 209.067c-7.822 7.822-11.733 17.777-11.733 29.867s3.911 22.044 11.733 29.867c7.822 7.822 17.778 11.733 29.867 11.733s22.045-3.911 29.867-11.733l209.065-209.067 209.067 209.067c7.825 7.822 17.779 11.733 29.867 11.733 12.092 0 22.046-3.911 29.867-11.733 7.825-7.823 11.733-17.778 11.733-29.867s-3.908-22.045-11.733-29.867l-209.067-209.067 209.067-209.067c7.825-7.821 11.733-17.779 11.733-29.867s-3.908-22.046-11.733-29.867c-7.821-7.821-17.775-11.733-29.867-11.733-12.087 0-22.042 3.913-29.867 11.733l-209.067 209.067z" />
<glyph unicode="&#xe90f;" glyph-name="warning" d="M116.268 64c-7.822 0-14.933 1.954-21.333 5.867s-11.377 9.067-14.933 15.467c-3.555 6.4-5.511 13.333-5.867 20.8s1.6 14.754 5.867 21.867l394.665 682.667c4.267 7.111 9.779 12.445 16.533 16 6.758 3.555 13.692 5.333 20.8 5.333 7.113 0 14.046-1.778 20.8-5.333 6.758-3.555 12.267-8.889 16.533-16l394.667-682.667c4.267-7.113 6.225-14.4 5.867-21.867-0.354-7.467-2.308-14.4-5.867-20.8-3.554-6.4-8.533-11.554-14.933-15.467s-13.508-5.867-21.333-5.867h-791.465zM189.868 149.333h644.265l-322.133 554.667-322.132-554.667zM512 192c12.092 0 22.225 4.087 30.4 12.267 8.179 8.179 12.267 18.313 12.267 30.4s-4.087 22.221-12.267 30.4c-8.175 8.179-18.308 12.267-30.4 12.267-12.087 0-22.221-4.087-30.4-12.267-8.175-8.179-12.267-18.313-12.267-30.4s4.092-22.221 12.267-30.4c8.179-8.179 18.313-12.267 30.4-12.267zM512 320c12.092 0 22.225 4.087 30.4 12.267 8.179 8.179 12.267 18.313 12.267 30.4v128c0 12.087-4.087 22.221-12.267 30.4-8.175 8.179-18.308 12.267-30.4 12.267-12.087 0-22.221-4.087-30.4-12.267-8.175-8.179-12.267-18.313-12.267-30.4v-128c0-12.087 4.092-22.221 12.267-30.4 8.179-8.179 18.313-12.267 30.4-12.267z" />
<glyph unicode="&#xe910;" glyph-name="logout" d="M859.733 405.333h-518.4v85.333h518.4l-66.133 66.133 59.733 61.867 170.667-170.667-170.667-170.667-59.733 61.867 66.133 66.133zM640 576v170.667h-426.667v-597.333h426.667v170.667h85.333v-170.667c0-23.467-8.354-43.554-25.067-60.267s-36.8-25.067-60.267-25.067h-426.667c-23.467 0-43.555 8.354-60.267 25.067s-25.067 36.8-25.067 60.267v597.333c0 23.467 8.355 43.555 25.067 60.267s36.8 25.067 60.267 25.067h426.667c23.467 0 43.554-8.355 60.267-25.067s25.067-36.8 25.067-60.267v-170.667h-85.333z" />
<glyph unicode="&#xe911;" glyph-name="succes" d="M452.267 371.2l-91.733 91.733c-7.822 7.821-17.778 11.733-29.867 11.733s-22.045-3.913-29.867-11.733c-7.822-7.821-11.733-17.779-11.733-29.867s3.911-22.046 11.733-29.867l121.6-121.6c8.533-8.533 18.487-12.8 29.867-12.8s21.333 4.267 29.867 12.8l241.067 241.067c7.821 7.821 11.733 17.778 11.733 29.867s-3.913 22.045-11.733 29.867c-7.821 7.822-17.779 11.733-29.867 11.733s-22.046-3.911-29.867-11.733l-211.2-211.2zM512 21.333c-59.021 0-114.489 11.2-166.4 33.6s-97.067 52.8-135.467 91.2c-38.4 38.4-68.8 83.554-91.2 135.467s-33.6 107.379-33.6 166.4c0 59.021 11.2 114.489 33.6 166.4s52.8 97.067 91.2 135.467c38.4 38.4 83.555 68.8 135.467 91.2s107.379 33.6 166.4 33.6c59.021 0 114.487-11.2 166.4-33.6s97.067-52.8 135.467-91.2c38.4-38.4 68.8-83.555 91.2-135.467s33.6-107.379 33.6-166.4c0-59.021-11.2-114.487-33.6-166.4s-52.8-97.067-91.2-135.467c-38.4-38.4-83.554-68.8-135.467-91.2s-107.379-33.6-166.4-33.6zM512 106.667c95.287 0 176 33.067 242.133 99.2s99.2 146.846 99.2 242.133c0 95.289-33.067 176-99.2 242.133s-146.846 99.2-242.133 99.2c-95.289 0-176-33.067-242.133-99.2s-99.2-146.845-99.2-242.133c0-95.287 33.067-176 99.2-242.133s146.845-99.2 242.133-99.2z" />
<glyph unicode="&#xe912;" glyph-name="download" d="M512 295.467c-5.687 0-11.021 0.887-16 2.667s-9.6 4.8-13.867 9.067l-153.6 153.6c-8.533 8.533-12.622 18.487-12.267 29.867s4.445 21.333 12.267 29.867c8.533 8.533 18.667 12.978 30.4 13.333s21.867-3.733 30.4-12.267l80-80v305.067c0 12.089 4.087 22.222 12.267 30.4s18.313 12.267 30.4 12.267c12.087 0 22.221-4.089 30.4-12.267s12.267-18.311 12.267-30.4v-305.067l80 80c8.533 8.533 18.667 12.622 30.4 12.267s21.867-4.8 30.4-13.333c7.821-8.533 11.913-18.487 12.267-29.867s-3.733-21.333-12.267-29.867l-153.6-153.6c-4.267-4.267-8.887-7.287-13.867-9.067s-10.313-2.667-16-2.667zM256 106.667c-23.467 0-43.555 8.354-60.267 25.067s-25.067 36.8-25.067 60.267v85.333c0 12.087 4.089 22.221 12.267 30.4s18.311 12.267 30.4 12.267c12.089 0 22.222-4.087 30.4-12.267s12.267-18.313 12.267-30.4v-85.333h512v85.333c0 12.087 4.087 22.221 12.267 30.4s18.313 12.267 30.4 12.267c12.087 0 22.221-4.087 30.4-12.267s12.267-18.313 12.267-30.4v-85.333c0-23.467-8.354-43.554-25.067-60.267s-36.8-25.067-60.267-25.067h-512z" />
<glyph unicode="&#xe913;" glyph-name="resend" d="M732.8 362.667h-412.8c-53.333 0-98.667 18.667-136 56s-56 82.667-56 136c0 53.333 18.667 98.667 56 136s82.667 56 136 56c12.089 0 22.222-4.089 30.4-12.267s12.267-18.311 12.267-30.4c0-12.089-4.089-22.222-12.267-30.4s-18.311-12.267-30.4-12.267c-29.867 0-55.111-10.311-75.733-30.933s-30.933-45.867-30.933-75.733c0-29.867 10.311-55.113 30.933-75.733s45.867-30.933 75.733-30.933h412.8l-122.667 123.733c-7.821 7.822-11.913 17.6-12.267 29.333s3.733 21.867 12.267 30.4c7.821 7.822 17.779 11.733 29.867 11.733s22.046-3.911 29.867-11.733l196.267-196.267c8.533-8.533 12.8-18.487 12.8-29.867s-4.267-21.333-12.8-29.867l-196.267-196.267c-8.533-8.533-18.487-12.621-29.867-12.267s-21.333 4.8-29.867 13.333c-7.821 8.533-11.913 18.487-12.267 29.867s3.733 21.333 12.267 29.867l122.667 122.667z" />
<glyph unicode="&#xe914;" glyph-name="valid" d="M412.445 368.35l293.688 293.69c9.126 9.126 20.74 13.689 34.846 13.689 14.101 0 25.719-4.563 34.842-13.689 9.126-9.126 13.692-20.741 13.692-34.845s-4.565-25.719-13.692-34.844l-328.533-328.535c-9.954-9.954-21.568-14.933-34.842-14.933s-24.889 4.979-34.844 14.933l-129.423 129.425c-9.126 9.126-13.689 20.74-13.689 34.842 0 14.106 4.563 25.719 13.689 34.846s20.741 13.687 34.845 13.687c14.104 0 25.719-4.561 34.845-13.687l94.577-94.579z" />
<glyph unicode="&#xe915;" glyph-name="reminder" d="M896 405.338h-85.333c-12.087 0-22.221 4.087-30.4 12.267-8.179 8.175-12.267 18.308-12.267 30.4 0 12.087 4.087 22.221 12.267 30.4 8.179 8.175 18.313 12.267 30.4 12.267h85.333c12.087 0 22.221-4.092 30.4-12.267 8.179-8.179 12.267-18.313 12.267-30.4 0-12.092-4.087-22.225-12.267-30.4-8.179-8.179-18.313-12.267-30.4-12.267zM708.267 243.204c7.113 9.954 16.354 15.642 27.733 17.067 11.379 1.421 22.046-1.425 32-8.533l68.267-51.2c9.954-7.113 15.646-16.358 17.067-27.733 1.421-11.379-1.421-22.046-8.533-32-7.113-9.958-16.354-15.646-27.733-17.067-11.379-1.425-22.046 1.421-32 8.533l-68.267 51.2c-9.954 7.108-15.646 16.354-17.067 27.733-1.421 11.375 1.421 22.042 8.533 32zM836.267 695.47l-68.267-51.2c-9.954-7.111-20.621-9.955-32-8.533s-20.621 7.111-27.733 17.067c-7.113 9.955-9.954 20.622-8.533 32s7.113 20.622 17.067 27.733l68.267 51.2c9.954 7.111 20.621 9.955 32 8.533s20.621-7.111 27.733-17.067c7.113-9.956 9.954-20.623 8.533-32s-7.113-20.623-17.067-27.733zM213.333 320.004h-42.667c-23.467 0-43.555 8.354-60.267 25.067-16.711 16.708-25.067 36.8-25.067 60.267v85.333c0 23.467 8.355 43.554 25.067 60.265s36.8 25.067 60.267 25.067h170.667l148.267 89.6c14.221 8.534 28.621 8.534 43.2 0s21.867-20.977 21.867-37.333v-360.532c0-16.358-7.287-28.8-21.867-37.333s-28.979-8.533-43.2 0l-148.267 89.6h-42.667v-128c0-12.092-4.089-22.225-12.267-30.4-8.178-8.179-18.311-12.267-30.4-12.267s-22.222 4.087-30.4 12.267c-8.178 8.175-12.267 18.308-12.267 30.4v128zM469.333 343.471v209.065l-104.533-61.865h-194.133v-85.333h194.133l104.533-61.867zM597.333 305.071v285.865c19.2-17.067 34.667-37.867 46.4-62.399 11.733-24.533 17.6-51.379 17.6-80.533 0-29.158-5.867-56-17.6-80.533s-27.2-45.333-46.4-62.4z" />
<glyph unicode="&#xe916;" glyph-name="trash" d="M298.667 64c-23.467 0-43.555 8.354-60.267 25.067s-25.067 36.8-25.067 60.267v554.667c-12.089 0-22.222 4.089-30.4 12.267s-12.267 18.311-12.267 30.4c0 12.089 4.089 22.222 12.267 30.4s18.311 12.267 30.4 12.267h170.667c0 12.089 4.089 22.222 12.267 30.4s18.311 12.267 30.4 12.267h170.667c12.087 0 22.221-4.089 30.4-12.267s12.267-18.311 12.267-30.4h170.667c12.087 0 22.221-4.089 30.4-12.267s12.267-18.311 12.267-30.4c0-12.089-4.087-22.222-12.267-30.4s-18.313-12.267-30.4-12.267v-554.667c0-23.467-8.354-43.554-25.067-60.267s-36.8-25.067-60.267-25.067h-426.667zM725.333 704h-426.667v-554.667h426.667v554.667zM426.667 234.667c12.087 0 22.221 4.087 30.4 12.267s12.267 18.313 12.267 30.4v298.667c0 12.089-4.087 22.222-12.267 30.4s-18.313 12.267-30.4 12.267c-12.089 0-22.222-4.089-30.4-12.267s-12.267-18.311-12.267-30.4v-298.667c0-12.087 4.089-22.221 12.267-30.4s18.311-12.267 30.4-12.267zM597.333 234.667c12.087 0 22.221 4.087 30.4 12.267s12.267 18.313 12.267 30.4v298.667c0 12.089-4.087 22.222-12.267 30.4s-18.313 12.267-30.4 12.267c-12.087 0-22.221-4.089-30.4-12.267s-12.267-18.311-12.267-30.4v-298.667c0-12.087 4.087-22.221 12.267-30.4s18.313-12.267 30.4-12.267z" />
</font>
</defs>
</svg>
